<svg width="30" height="27" viewBox="0 0 30 27" fill="none" xmlns="http://www.w3.org/2000/svg">
<path d="M28.0615 11.227H5.87421L12.6651 3.0704C12.9826 2.68836 13.1354 2.19582 13.0898 1.70114C13.0442 1.20646 12.8039 0.750161 12.4219 0.432619C12.0399 0.115078 11.5473 -0.0376927 11.0526 0.00791616C10.558 0.053525 10.1017 0.293777 9.78412 0.675819L0.430277 11.9004C0.367345 11.9897 0.31107 12.0835 0.261907 12.181C0.261907 12.2746 0.261908 12.3307 0.130954 12.4242C0.0461587 12.6387 0.00176062 12.8671 0 13.0977C0.00176062 13.3284 0.0461587 13.5567 0.130954 13.7712C0.130954 13.8647 0.130954 13.9209 0.261907 14.0144C0.31107 14.1119 0.367345 14.2057 0.430277 14.295L9.78412 25.5196C9.96001 25.7308 10.1803 25.9006 10.4292 26.017C10.6782 26.1334 10.9498 26.1935 11.2246 26.1931C11.6617 26.194 12.0853 26.0417 12.4219 25.7628C12.6113 25.6058 12.7679 25.4129 12.8827 25.1952C12.9975 24.9776 13.0682 24.7394 13.0908 24.4944C13.1134 24.2494 13.0874 24.0023 13.0143 23.7673C12.9413 23.5323 12.8226 23.3141 12.6651 23.125L5.87421 14.9685H28.0615C28.5577 14.9685 29.0335 14.7714 29.3844 14.4206C29.7352 14.0697 29.9323 13.5939 29.9323 13.0977C29.9323 12.6016 29.7352 12.1257 29.3844 11.7749C29.0335 11.4241 28.5577 11.227 28.0615 11.227Z" fill="#231F20"/>
</svg>
