<svg width="31" height="33" viewBox="0 0 31 33" fill="none" xmlns="http://www.w3.org/2000/svg">
<path d="M30.3058 29.1319L29.2347 28.0199C26.5071 25.1881 26.5064 20.7691 27.1736 16.8943C27.315 16.0729 27.3868 15.2356 27.3858 14.3919C27.3858 11.5786 26.5846 8.82843 25.0835 6.48924C23.5824 4.15005 21.4489 2.32687 18.9527 1.25026C16.4565 0.173644 13.7097 -0.108047 11.0598 0.440805C8.40984 0.989657 5.9757 2.3444 4.06519 4.33372C2.15467 6.32304 0.8536 8.85759 0.326492 11.6169C-0.200617 14.3761 0.0699144 17.2362 1.10388 19.8353C2.13784 22.4345 3.88879 24.6561 6.13531 26.2191C8.38183 27.7821 11.023 28.6163 13.7249 28.6163C14.2849 28.617 14.8419 28.5816 15.393 28.511C19.5341 27.9806 24.3195 27.9374 27.2069 30.9528L27.881 31.6568C28.0397 31.8234 28.2286 31.9557 28.4367 32.046C28.6448 32.1362 28.868 32.1827 29.0934 32.1827C29.3188 32.1827 29.542 32.1362 29.7501 32.046C29.9582 31.9557 30.1471 31.8234 30.3058 31.6568C30.4659 31.4915 30.5929 31.2948 30.6796 31.0782C30.7663 30.8615 30.8109 30.6291 30.8109 30.3944C30.8109 30.1596 30.7663 29.9272 30.6796 29.7106C30.5929 29.4939 30.4659 29.2972 30.3058 29.1319ZM3.47923 14.3919C3.47923 12.2819 4.08012 10.2193 5.20593 8.4649C6.33174 6.71051 7.9319 5.34312 9.80405 4.53567C11.6762 3.72821 13.7363 3.51694 15.7237 3.92858C17.7112 4.34022 19.5368 5.35627 20.9697 6.84826C22.4026 8.34025 23.3784 10.2412 23.7737 12.3106C24.169 14.3801 23.9661 16.5251 23.1907 18.4745C22.4152 20.4239 21.102 22.09 19.4171 23.2623C17.7322 24.4345 15.7513 25.0602 13.7249 25.0602C11.0076 25.0602 8.40155 23.9362 6.48011 21.9355C4.55868 19.9348 3.47923 17.2213 3.47923 14.3919Z" fill="#231F20"/>
</svg>
